<?xml version="1.0" encoding="UTF-8"?><svg id="green-logo" xmlns="http://www.w3.org/2000/svg" viewBox="0 0 882.71 122.27"><g id="Layer_2-2"><g id="Layer_1-2"><g><path d="M149.12,46.13c4-4.03,8.26-7.37,13.44-9.46,11.33-4.58,24.39-2.39,32.16,5.81,6.41,6.77,8.31,15.15,6.87,24.07-2.3,14.26-5.04,28.45-7.78,42.63-1.57,8.15-8.23,13.27-15.54,12.38-5.84-.71-9.1-4.88-8.06-10.6,2.57-14.13,5.26-28.24,7.83-42.38,.59-3.22,.85-6.53-1.48-9.28-3.32-3.92-9.81-3.85-14.11,0-2.59,2.31-4.03,5.19-4.7,8.56-2.82,14.08-5.63,28.17-8.55,42.23-1.27,6.11-5.09,10.02-11.18,11.38-7.91,1.77-13.56-3.65-12.11-11.64,2.26-12.41,4.72-24.79,7.04-37.2,.49-2.61,.96-5.26,1.02-7.89,.12-5.79-4.46-9.41-10.11-8.17-5.53,1.21-8.96,4.81-10.1,10.18-2.66,12.5-4.96,25.08-7.55,37.6-.72,3.47-1.51,7.05-3.08,10.17-2.53,5.02-7.16,7.33-12.74,7.15-6.21-.2-10.05-5.34-8.83-11.51,3.07-15.47,5.88-30.99,9.35-46.37,4.88-21.61,25.18-32.93,45.02-28.38,5.53,1.27,9.38,4.77,12.36,9.39,.26,.4,.49,.8,.82,1.33h0Z" style="fill:#41b883;"/><path d="M516.91,46.01c4.61-4.35,9.28-8.2,15.31-9.91,10.79-3.04,20.85-2.01,29.32,5.93,6.19,5.8,9.2,13.32,7.95,21.65-2.33,15.43-5.26,30.77-8.2,46.1-1.32,6.88-6.12,11.36-12.56,12.1-5.83,.67-12.24-3.17-11-10.39,1.66-9.66,3.49-19.28,5.24-28.92,.99-5.47,2.08-10.93,2.94-16.42,1.2-7.66-6.11-10.96-11.59-8.97-5.4,1.96-8.02,5.92-9.08,11.2-2.69,13.35-5.36,26.7-7.95,40.07-1.02,5.25-3.31,9.51-8.27,12.03-4.22,2.14-8.37,2.16-12.22-.61-3.54-2.54-3.99-6.2-3.2-10.27,2.53-13.04,5-26.1,7.4-39.16,.4-2.19,.73-4.49,.48-6.67-.6-5.2-4.6-7.94-9.76-6.97-5.05,.95-8.57,4.04-9.87,8.82-1.86,6.87-3.08,13.92-4.49,20.91-1.58,7.81-2.91,15.68-4.63,23.46-1.62,7.32-7.12,11.82-13.99,11.96-6.09,.12-10.77-4.94-9.65-10.86,2.91-15.42,5.76-30.85,9.13-46.17,2.96-13.48,11.01-23.12,24.05-28.06,7.59-2.88,15.58-3.38,23.23-.56,3.24,1.19,5.84,4.19,8.64,6.48,1.01,.82,1.74,1.99,2.79,3.23h-.02Z" style="fill:#41b883;"/><path d="M36.27,51.25c1.42,.09,2.64,.23,3.86,.23,8.13,.04,16.26,.06,24.4,.08,4.12,0,7.8,.82,9.66,5.07,1.92,4.4,.89,8.38-1.74,12.16-2.96,4.24-7.16,6.03-12.14,6.11-8.46,.13-16.93,.08-25.4,.11h-3.25c-1.38,7.26-2.76,14.46-4.19,22h4.22c7.72,0,15.43-.03,23.16,0,4.4,.02,8.45,.76,10.41,5.52,1.96,4.77,.72,8.89-2.4,12.64-2.79,3.36-6.36,5.21-10.79,5.21-13.53,0-27.06,.15-40.58-.06-9.15-.14-12.79-4.97-11.08-14.01,2.07-10.91,4.2-21.81,6.32-32.72,3.41-17.57,6.82-35.14,10.25-52.7,1.16-5.92,3.42-11.28,9.48-13.59,2.85-1.1,6.1-1.52,9.19-1.57,12.12-.17,24.23-.08,36.35-.07,6.9,0,10.22,1.95,11.57,6.76,1.44,5.14-1.21,11.2-6.04,14.35-2.92,1.9-6.08,2.48-9.45,2.48-8.47,0-16.93,.04-25.4-.04-1.61,0-2.33,.4-2.63,2.07-1.17,6.59-2.49,13.15-3.8,19.98h.02Z" style="fill:#41b883;"/><path d="M412.63,56.82c-4.15-.86-8.23-.27-11.94,1.69-9.5,5.04-15.69,12.5-15.9,23.76-.25,13.36,11.56,20.56,23.79,16.18,3.54-1.27,6.69-3.61,10.03-5.43,1.6-.87,3.17-1.9,4.88-2.44,3.97-1.25,7.85-.94,10.82,2.29,2.95,3.21,2.84,7.08,1.61,11.02-1.48,4.76-5.35,7.33-9.2,9.74-10.81,6.74-22.53,9.57-35.23,7.43-19.9-3.35-32.17-19.53-30.16-39.73,2.78-27.92,27.12-48.62,55.1-46.78,8.18,.54,15.55,3.44,21.94,8.59,7.06,5.69,7.29,13.37,.52,20.01-7.72,7.58-15.59,15-23.41,22.48-2.95,2.82-6.27,4.86-10.54,4.98-8.24,.23-12.99-6.65-9.48-14.11,1.14-2.43,2.85-4.69,4.7-6.66,3.36-3.58,6.99-6.9,10.56-10.27,.77-.73,1.77-1.21,2.66-1.8l-.75-.95h0Z" style="fill:#41b883;"/><path d="M799.78,82.44c-.06-16.09,7.46-28.27,19.97-37.63,9.98-7.47,21.31-11.09,33.84-10.3,9.66,.61,18.3,3.78,25.37,10.65,4.16,4.04,4.88,8.75,2.08,14.04-2.47,4.68-8.65,7.95-13.33,6.74-1.68-.43-3.51-1.37-4.66-2.64-10.68-11.86-25.85-6.63-33.31,2.39-4.06,4.91-6.68,10.48-6.56,17.08,.21,11.87,11.21,19.94,22.46,16.09,3.94-1.35,7.47-3.87,11.24-5.74,2.28-1.13,4.59-2.45,7.04-2.96,3.95-.83,7.6,.4,9.77,3.94,2.35,3.83,2.34,8.01-.27,11.76-3.46,4.98-8.44,8.19-13.85,10.71-8.97,4.17-18.31,6.62-28.27,4.9-10.44-1.81-19.38-6.39-25.63-15.25-4.1-5.82-5.4-12.57-5.87-19.52-.1-1.41-.01-2.83-.01-4.24v-.02h-.01Z" style="fill:#41b883;"/><path d="M727.53,36.01h12.58c1,0,1.99-.08,2.99-.09,3.61,0,6.82,.89,8.62,4.34,1.89,3.62,1.45,7.23-.56,10.68-2.76,4.75-7.08,6.78-12.42,6.88-4.08,.07-8.16,.1-12.24,.08-2.28,0-3.55,1.05-3.95,3.28-1.36,7.53-2.87,15.04-4.07,22.6-.86,5.43-.24,10.63,4.99,13.82,1.76,1.07,4.03,1.62,6.12,1.79,8.7,.7,9.98,3.61,10.73,7.78,.95,5.29-2.19,10.76-7.74,13.16-2,.86-4.34,1.43-6.49,1.35-9.3-.35-17.87-2.76-24.48-9.86-5.99-6.44-7.64-14.29-6.67-22.68,1.1-9.57,2.68-19.09,4.04-28.64,.1-.72,.19-1.45,.31-2.36-.82-.12-1.46-.27-2.1-.3-3.48-.19-6.54-1-8.23-4.53-1.82-3.81-1.51-7.44,.74-10.88,2.44-3.74,5.83-6.24,10.44-6.25,3.04,0,3.98-1.48,4.39-4.17,.42-2.78,1.12-5.55,2.02-8.21,2.05-6.02,9.2-10.1,15.34-8.95,5.3,.99,8.18,5.58,7.21,11.5-.51,3.1-1.02,6.21-1.6,9.67h.03Z" style="fill:#41b883;"/><path d="M348.65,3.48c6.86,0,10.76,4.74,9.47,11.48-5.95,30.96-11.88,61.92-17.87,92.87-1.18,6.08-3.89,10.96-10.26,13.21-8.28,2.93-15.22-3.03-13.6-11.81,2.92-15.74,6.1-31.44,9.18-47.15,3.04-15.46,6.01-30.94,9.17-46.38,1.57-7.65,7.01-12.23,13.91-12.22Z" style="fill:#41b883;"/><path d="M754.26,112.55c1.6-8.55,2.98-16.23,4.47-23.88,2.67-13.77,5.31-27.56,8.17-41.29,1.13-5.41,3.83-9.93,9.39-12,3.86-1.44,7.7-1.61,11.04,1.24,3.32,2.83,3.9,6.54,3.1,10.67-3.89,20.05-7.75,40.1-11.61,60.15-.94,4.87-2.74,9.2-7.09,12.1-4.88,3.27-11.68,2.95-14.94-1.19-1.38-1.76-1.87-4.22-2.53-5.8h0Z" style="fill:#41b883;"/><path d="M782.73,26.56c-7.49,.07-12.12-5.52-10.79-13.04,1.12-6.34,6.93-12.14,13.31-13.29,9.2-1.66,15.65,6.02,12.79,15.23-1.97,6.34-8.45,11.04-15.31,11.1Z" style="fill:#41b883;"/><path d="M297.88,45.22c-8.98-9.34-20.3-11.57-32.57-9.54-5.09,.85-9.98,2.81-15.22,4.33,.16-1.1,.28-2.16,.47-3.21,1.33-7.37,2.69-14.73,4.01-22.1,1.03-5.73-1.91-9.95-7.63-10.69-5.4-.7-10.23,.97-12.95,5.66-2.03,3.49-3.16,7.66-3.97,11.67-4.33,21.53-8.44,43.1-12.61,64.66-1.63,8.42-3.41,16.81-4.78,25.26-1.05,6.44,3.87,11.34,10.37,10.87,3.86-.28,6.99-1.96,9.51-4.83,1.07-1.22,2.09-2.49,2.89-3.45,4.04,2.22,7.59,4.95,11.59,6.24,16.76,5.41,31.33,.39,43.87-10.91,11.18-10.08,16.54-23.08,16.46-38.17-.05-9.69-2.57-18.64-9.44-25.79h0Zm-35.03,53.97c-1.46,.27-2.96,.34-4.45,.51-8.78,0-15.04-5.8-16.06-14.83-1.53-13.5,9.98-28.47,24.65-28.43,8.48,.02,15.44,6.44,16.45,14.89,1.52,12.72-8.65,25.69-20.59,27.86Z" style="fill:#41b883;"/><path d="M673.78,36.35c-3.68-2.49-7.81-2.84-11.56-.59-3.07,1.84-5.62,4.54-8.23,6.71h-.01c-4.09-2.16-8.02-5.16-12.45-6.39-15.89-4.42-30.14-.14-41.95,10.79-13.65,12.64-19.1,28.65-16.22,47.2,2.22,14.28,14.72,25.99,29.05,27.42,9.39,.94,18.18-1.11,26.46-5.48,1.51-.79,2.34-.71,3.49,.73,2.73,3.41,6.3,5.34,10.85,4.8,5.45-.65,10.31-5.42,11.61-11.82,3.09-15.14,6.04-30.29,9.01-45.45,1.2-6.11,2.43-12.22,3.4-18.37,.58-3.69-.06-7.26-3.45-9.55Zm-50.1,63.4c-8.11,.37-15.26-4.2-17.04-13.26-2.85-14.52,9.9-29.95,24.66-29.92,9.89,0,16.63,7.19,16.46,17.54h.01c-.22,13.21-11.04,25.04-24.09,25.64Z" style="fill:#41b883;"/></g></g></g></svg>