<?xml version="1.0" encoding="UTF-8"?><svg id="Layer_2" xmlns="http://www.w3.org/2000/svg" viewBox="0 0 255.83 255.84"><g id="Layer_1-2"><path d="M156.9,0h10.99c.48,1.25,1.6,.92,2.53,.99,13.56,1.01,26.58,4.18,38.86,10.02,20.36,9.68,36.54,23.5,44.09,45.64,.83,2.43,.63,5.22,2.47,7.31v18.99c-1.53,.9-1.27,2.64-1.66,3.98-2.4,8.19-6.78,15.13-12.73,21.16-11.43,11.57-25.3,12.62-38.08,2.51-12.8-10.12-25.35-20.54-37.99-30.85-2.96-2.42-6.09-4.66-8.48-7.71-7.95-10.1-3.3-22.3,9.35-24.36,9.19-1.49,17.07,1.96,24.17,7.23,6.94,5.15,13.53,10.79,20.31,16.17,1.09,.87,2.04,2.73,3.7,1.77,1.45-.84,.89-2.71,.91-4.15,.05-4.27-1.21-8.17-3.35-11.85-10.93-18.71-41.08-28.36-60.81-19.43-14.48,6.55-18.66,21.32-9.61,34.37,3.03,4.37,6.39,8.52,10.28,12.2,16.46,15.56,32,32.03,47.76,48.28,2.93,3.02,5.42,6.3,6.32,10.55,1.6,7.56-1.26,14.34-7.82,18.46-7.57,4.75-16.69,4.84-22.9-.37-4.58-3.84-8.7-8.23-12.89-12.51-12.83-13.07-25.47-26.31-38.42-39.26-8.55-8.55-21.88-7.04-27.36,2.74-3.58,6.39-2.24,12.9,4.35,19.81,14.47,15.18,29.05,30.26,43.54,45.41,3.7,3.87,7.19,7.88,7.53,13.67,.46,7.81-3.32,13.93-10.86,17.39-8.41,3.86-17.36,2.26-23.83-4.42-14.49-14.93-28.91-29.93-43.39-44.86-3.84-3.95-7.82-7.75-13.38-9.25-6.34-1.71-13.07,.64-17.27,6.18-3.99,5.27-3.86,10.73-.62,16.31,2.2,3.78,5.19,6.9,8.21,10.01,13.23,13.6,26.52,27.15,39.69,40.81,8.95,9.29,9.5,18.87,1.97,27.01-2.67,2.89-6.47,3.71-9.51,5.88h-10.99c-4.25-2.52-8.24-5.3-11.68-8.95-7.74-8.23-15.91-16.05-23.53-24.39-13.76-15.04-30.52-27.86-36.75-48.61v-16.99c2.06-2.31,1.96-5.51,3.38-8.11,10.91-20.06,26.69-32.04,50.59-30.19,4.64,.36,6.41-.68,6.12-5.75-.46-7.86,2.2-15.03,6.71-21.51,6.62-9.51,15.62-15.88,26.52-19.34,4.13-1.31,5.42-2.71,4.26-7.16-1.82-6.98-1.88-14.25-.06-21.26,5.88-22.7,21.58-34.98,43.51-40.61,5.24-1.35,10.78-.93,15.87-2.98Z" style="fill:#42b884;"/></g></svg>